<svg width="44" height="43" viewBox="0 0 44 43" fill="none" xmlns="http://www.w3.org/2000/svg">
<path d="M22.4338 23.4349C22.2009 23.4349 21.968 23.3812 21.753 23.2558L12.2572 17.7732C11.6122 17.397 11.3971 16.5728 11.7734 15.9458C12.1496 15.3007 12.9559 15.0857 13.6188 15.462L22.4338 20.5683L31.1951 15.4978C31.8401 15.1216 32.6643 15.3545 33.0405 15.9816C33.4168 16.6266 33.1838 17.4508 32.5567 17.8091L23.1326 23.2558C22.8997 23.3633 22.6667 23.4349 22.4338 23.4349Z" fill="white"/>
<path d="M22.4336 33.1816C21.699 33.1816 21.0898 32.5724 21.0898 31.8378V22.0912C21.0898 21.3566 21.699 20.7474 22.4336 20.7474C23.1682 20.7474 23.7773 21.3566 23.7773 22.0912V31.8378C23.7773 32.5724 23.1682 33.1816 22.4336 33.1816Z" fill="white"/>
<path d="M22.434 33.5937C21.3949 33.5937 20.3736 33.3608 19.5495 32.9129L13.8161 29.7237C12.0961 28.7742 10.7703 26.4987 10.7703 24.5279V18.4542C10.7703 16.5012 12.114 14.2079 13.8161 13.2583L19.5495 10.0692C21.1978 9.15541 23.6703 9.15541 25.3186 10.0692L31.0519 13.2583C32.7719 14.2079 34.0978 16.4833 34.0978 18.4542V24.5279C34.0978 26.4808 32.754 28.7742 31.0519 29.7237L25.3186 32.9129C24.4944 33.3608 23.4732 33.5937 22.434 33.5937ZM22.434 12.0937C21.8428 12.0937 21.2694 12.2012 20.8574 12.4342L15.1241 15.6233C14.2461 16.1071 13.4578 17.4687 13.4578 18.4542V24.5279C13.4578 25.5312 14.2461 26.875 15.1241 27.3587L20.8574 30.5479C21.6815 31.0137 23.1865 31.0137 24.0107 30.5479L29.744 27.3587C30.6219 26.875 31.4103 25.5133 31.4103 24.5279V18.4542C31.4103 17.4508 30.6219 16.1071 29.744 15.6233L24.0107 12.4342C23.5986 12.2012 23.0253 12.0937 22.434 12.0937Z" fill="white"/>
<path d="M27.809 40.7604C27.3252 40.7604 26.8773 40.4916 26.6444 40.0796C26.4115 39.6496 26.4114 39.1479 26.6623 38.7179L28.5436 35.5825C28.9198 34.9554 29.744 34.7404 30.389 35.1166C31.034 35.4929 31.2311 36.3171 30.8548 36.9621L30.371 37.7683C35.316 36.6037 39.0248 32.1604 39.0248 26.8571C39.0248 26.1225 39.634 25.5133 40.3686 25.5133C41.1031 25.5133 41.7123 26.1225 41.7123 26.8571C41.6944 34.5254 35.4594 40.7604 27.809 40.7604Z" fill="white"/>
<path d="M4.51691 17.4687C3.78232 17.4687 3.17316 16.8596 3.17316 16.125C3.17316 8.47456 9.40816 2.23956 17.0586 2.23956C17.5423 2.23956 17.9902 2.50831 18.2231 2.92039C18.4561 3.35039 18.4561 3.85206 18.2053 4.28206L16.324 7.41748C15.9477 8.04456 15.1236 8.25957 14.4786 7.88332C13.8336 7.50707 13.6365 6.6829 14.0127 6.0379L14.4965 5.23164C9.5515 6.39623 5.84272 10.8396 5.84272 16.1429C5.86064 16.8596 5.25149 17.4687 4.51691 17.4687Z" fill="white"/>
</svg>
