<svg width="50" height="50" viewBox="0 0 50 50" fill="none" xmlns="http://www.w3.org/2000/svg">
<circle cx="25" cy="25" r="25" fill="#31B085"/>
<path d="M37.7042 28.8876C37.4963 28.3667 36.9055 28.113 36.3846 28.3209C35.8637 28.5289 35.6099 29.1196 35.8179 29.6406C36.0822 30.3029 35.9956 31.0591 35.586 31.6636C35.1762 32.2684 34.52 32.6153 33.7858 32.6153H16.2183C15.4174 32.6153 14.7063 32.1975 14.3158 31.4974C13.9247 30.7961 13.9431 29.9698 14.365 29.2867L23.1487 15.0653C23.5487 14.4177 24.2415 14.0311 25.0021 14.0311C25.7627 14.0311 26.4554 14.4177 26.8554 15.0653L33.3517 25.5833C33.6465 26.0605 34.2723 26.2085 34.7494 25.9136C35.2265 25.6189 35.3745 24.9932 35.0797 24.516L28.5834 13.9979C27.8107 12.7469 26.4719 12 25.002 12C23.5322 12 22.1934 12.7469 21.4207 13.9979L12.6369 28.2194C11.8226 29.538 11.7871 31.1333 12.542 32.4868C13.2963 33.8391 14.6706 34.6464 16.2183 34.6464H33.7858C35.2045 34.6464 36.4735 33.9744 37.2674 32.8029C38.0553 31.6401 38.2186 30.1764 37.7042 28.8876Z" fill="white"/>
<path d="M25.0025 30.6352C25.5634 30.6352 26.0181 30.1806 26.0181 29.6197C26.0181 29.0588 25.5634 28.6042 25.0025 28.6042H25.002C24.4411 28.6042 23.9868 29.0588 23.9868 29.6197C23.9868 30.1806 24.4417 30.6352 25.0025 30.6352Z" fill="white"/>
<path d="M26.0175 26.065V18.6008C26.0175 18.0399 25.5629 17.5853 25.002 17.5853C24.4411 17.5853 23.9865 18.0399 23.9865 18.6008V26.065C23.9865 26.6259 24.4411 27.0805 25.002 27.0805C25.5629 27.0805 26.0175 26.6259 26.0175 26.065Z" fill="white"/>
</svg>
