<svg width="74" height="55" viewBox="0 0 74 55" fill="none" xmlns="http://www.w3.org/2000/svg">
<rect y="5" width="50" height="50" rx="25" fill="white"/>
<path d="M36.9142 30.9699C37.5587 30.2317 37.8811 29.3587 37.8811 28.3508C37.8811 27.4367 37.5466 26.6458 36.88 25.9775C36.2121 25.3093 35.4212 24.9753 34.5071 24.9753H29.6382C29.685 24.8113 29.732 24.6707 29.7787 24.5535C29.8251 24.4363 29.8902 24.3073 29.9719 24.1667C30.0537 24.026 30.1125 23.9205 30.1475 23.8503C30.3584 23.4521 30.5198 23.1237 30.6313 22.8661C30.7425 22.608 30.8533 22.2566 30.965 21.8113C31.0765 21.3662 31.1319 20.9207 31.1319 20.4754C31.1319 20.1943 31.1285 19.9655 31.123 19.7899C31.1175 19.6141 31.0876 19.3504 31.0353 18.9987C30.9823 18.6473 30.9118 18.3543 30.8242 18.1201C30.7361 17.8857 30.5954 17.6218 30.4024 17.3291C30.2089 17.0358 29.9747 16.7988 29.699 16.6171C29.4234 16.4354 29.072 16.2831 28.6443 16.1602C28.2162 16.0371 27.733 15.9756 27.1936 15.9756C26.889 15.9756 26.6256 16.087 26.4027 16.3097C26.1684 16.544 25.9688 16.8369 25.8049 17.1883C25.6408 17.54 25.5264 17.8447 25.4619 18.1026C25.3975 18.3604 25.3241 18.7179 25.2424 19.1748C25.1366 19.6672 25.0579 20.0214 25.0048 20.2382C24.9521 20.455 24.8493 20.7391 24.6971 21.0906C24.5446 21.4424 24.3632 21.7234 24.1522 21.9345C23.7655 22.3211 23.1738 23.0243 22.3768 24.0437C21.8024 24.7936 21.2107 25.5026 20.6013 26.1706C19.9919 26.8387 19.5466 27.1844 19.2654 27.2078C18.9727 27.2312 18.7207 27.3513 18.5097 27.5682C18.2987 27.785 18.1932 28.04 18.1932 28.3328V39.6004C18.1932 39.9051 18.3045 40.1657 18.5272 40.3825C18.7497 40.5995 19.0134 40.7137 19.3181 40.7254C19.7282 40.7372 20.654 40.9947 22.0955 41.4991C22.9977 41.8033 23.7037 42.0351 24.2135 42.1931C24.7231 42.3511 25.4355 42.5211 26.3489 42.703C27.2631 42.8846 28.1067 42.9756 28.8799 42.9756H29.1788H30.5149H31.1475C32.7065 42.9522 33.8603 42.495 34.6105 41.6046C35.29 40.7959 35.577 39.7354 35.4719 38.4229C35.9288 37.9893 36.2455 37.4388 36.421 36.7706C36.6199 36.0562 36.6199 35.3706 36.421 34.7145C36.9599 33.9996 37.2119 33.1969 37.1765 32.3062C37.178 31.9309 37.0903 31.4857 36.9142 30.9699Z" fill="#31B085"/>
<path d="M15.9437 27.2258H10.8813C10.5764 27.2258 10.3127 27.3372 10.0901 27.5599C9.86748 27.7825 9.7561 28.0462 9.7561 28.3509V39.6012C9.7561 39.9055 9.86748 40.1693 10.0902 40.3922C10.313 40.6145 10.5767 40.726 10.8814 40.726H15.9437C16.2483 40.726 16.5119 40.6145 16.7346 40.3922C16.9572 40.1693 17.0686 39.9056 17.0686 39.6012V28.3509C17.0686 28.0462 16.9572 27.7825 16.7346 27.5599C16.5119 27.3371 16.2484 27.2258 15.9437 27.2258ZM13.9221 38.1506C13.6995 38.3674 13.4358 38.4758 13.1311 38.4758C12.8147 38.4758 12.548 38.3674 12.3314 38.1506C12.1146 37.9339 12.0062 37.6673 12.0062 37.3509C12.0062 37.0462 12.1145 36.7825 12.3314 36.5599C12.5481 36.3372 12.8147 36.2257 13.1311 36.2257C13.4358 36.2257 13.6995 36.3372 13.9221 36.5599C14.1448 36.7824 14.2561 37.0462 14.2561 37.3509C14.2561 37.6673 14.145 37.9338 13.9221 38.1506Z" fill="#31B085"/>
<circle cx="57" cy="17" r="16" fill="#F44336" stroke="white" stroke-width="2"/>
<path d="M56.2442 19.58L55.8842 10H58.1442L57.7642 19.58H56.2442ZM57.0242 24.12C56.6509 24.12 56.3376 23.9933 56.0842 23.74C55.8309 23.4867 55.7042 23.1867 55.7042 22.84C55.7042 22.4667 55.8309 22.16 56.0842 21.92C56.3376 21.68 56.6509 21.56 57.0242 21.56C57.3976 21.56 57.7042 21.68 57.9442 21.92C58.1842 22.16 58.3042 22.4667 58.3042 22.84C58.3042 23.1867 58.1842 23.4867 57.9442 23.74C57.7042 23.9933 57.3976 24.12 57.0242 24.12Z" fill="white"/>
</svg>
