<svg width="205" height="39" viewBox="0 0 205 39" fill="none" xmlns="http://www.w3.org/2000/svg">
<path fill-rule="evenodd" clip-rule="evenodd" d="M15.2622 1.31335L20.2086 0.946795C20.2886 0.940761 20.3689 0.95135 20.4446 0.977895C20.5202 1.00444 20.5896 1.04636 20.6482 1.10103C20.7069 1.15569 20.7535 1.2219 20.7853 1.29549C20.8171 1.36908 20.8332 1.44845 20.8328 1.5286V2.77643C20.833 2.85651 20.8167 2.93578 20.7848 3.00926C20.753 3.08274 20.7063 3.14885 20.6477 3.20347C20.5891 3.25808 20.5199 3.30002 20.4443 3.32665C20.3688 3.35328 20.2885 3.36403 20.2086 3.35824L15.2622 2.99169C15.2221 3.10023 15.1499 3.19394 15.055 3.26029C14.9602 3.32663 14.8474 3.36244 14.7317 3.36292H14.5257V6.92549H17.6121C17.8348 6.9259 18.0483 7.01439 18.2059 7.17163C18.3634 7.32887 18.4524 7.54208 18.4532 7.76466V9.15443H8.55719V7.76466C8.55801 7.54208 8.64694 7.32887 8.80453 7.17163C8.96213 7.01439 9.17558 6.9259 9.39824 6.92549H12.519V3.3598H12.2959C12.1802 3.35932 12.0673 3.32351 11.9725 3.25717C11.8777 3.19082 11.8054 3.09711 11.7654 2.98857L6.81891 3.35512C6.73901 3.36091 6.65877 3.35016 6.58322 3.32353C6.50767 3.2969 6.43843 3.25496 6.37984 3.20035C6.32125 3.14573 6.27457 3.07962 6.24272 3.00614C6.21088 2.93266 6.19455 2.85339 6.19476 2.77331V1.52548C6.19431 1.44533 6.21049 1.36596 6.24225 1.29237C6.27402 1.21878 6.3207 1.15257 6.37934 1.09791C6.43798 1.04324 6.50731 1.00132 6.58297 0.974775C6.65862 0.948231 6.73896 0.937642 6.81891 0.943676L11.7654 1.31335C11.8046 1.20376 11.8765 1.10883 11.9713 1.04134C12.0662 0.973851 12.1795 0.937043 12.2959 0.935876H12.519V0.703467C12.5194 0.517023 12.5937 0.338332 12.7256 0.206496C12.8575 0.0746594 13.0362 0.000412033 13.2228 0L13.822 0C14.0085 0.000412033 14.1872 0.0746594 14.3191 0.206496C14.451 0.338332 14.5253 0.517023 14.5257 0.703467V0.935876H14.7317C14.8473 0.936572 14.9601 0.972466 15.0548 1.03878C15.1496 1.1051 15.2219 1.19869 15.2622 1.30711V1.31335ZM28.2431 38.2446C30.4698 38.2446 32.2736 36.4883 32.2736 34.3201C32.4577 33.1082 31.353 30.8403 28.2431 26.9314C25.1348 30.8403 24.03 33.1066 24.2142 34.3186C24.2157 36.4883 26.0195 38.2446 28.2431 38.2446ZM1.06263 10.9716H1.92084V23.3829H1.06263C0.780911 23.3816 0.511108 23.2691 0.312049 23.0698C0.11299 22.8706 0.000821035 22.6007 0 22.3191L0 12.0338C0.000823318 11.7523 0.113043 11.4826 0.312146 11.2836C0.511249 11.0846 0.781054 10.9724 1.06263 10.9716ZM3.05213 12.4784H2.40144V21.8371H3.05213C3.25967 21.8363 3.45863 21.7542 3.60626 21.6084C3.75389 21.4625 3.83842 21.2647 3.84168 21.0572V20.4567H7.87218C9.09552 22.1085 11.1615 23.1941 13.5068 23.1941C15.852 23.1941 17.918 22.1023 19.1398 20.4567H23.6649C24.0012 20.4579 24.3234 20.5921 24.5611 20.83C24.7988 21.0679 24.9327 21.3902 24.9335 21.7264V25.3607H31.381V20.725C31.3757 18.9354 30.6621 17.2206 29.3962 15.9552C28.1303 14.6897 26.4148 13.9764 24.6245 13.9711H19.4643C18.9151 13.0719 18.1558 12.3194 17.2517 11.778V9.51474H9.74153V11.7889C8.84484 12.3294 8.09216 13.0786 7.54762 13.9726H3.84168V13.2676C3.84127 13.0584 3.75795 12.8579 3.60997 12.71C3.46199 12.5621 3.2614 12.4788 3.05213 12.4784Z" fill="black"/>
<path d="M163.878 19.6544C164.834 19.9889 165.583 20.5146 166.125 21.2315C166.666 21.9325 166.937 22.7847 166.937 23.7884C166.937 25.254 166.348 26.3851 165.169 27.1816C163.99 27.9781 162.285 28.3764 160.055 28.3764H151.022V11.6492H159.577C161.712 11.6492 163.337 12.0475 164.452 12.844C165.567 13.6246 166.125 14.684 166.125 16.0222C166.125 16.8187 165.925 17.5356 165.527 18.1728C165.145 18.7941 164.595 19.288 163.878 19.6544ZM155.706 15.0664V18.2923H158.956C160.549 18.2923 161.345 17.7507 161.345 16.6674C161.345 15.6 160.549 15.0664 158.956 15.0664H155.706ZM159.673 24.9593C161.329 24.9593 162.158 24.3937 162.158 23.2627C162.158 22.1316 161.329 21.5661 159.673 21.5661H155.706V24.9593H159.673Z" fill="#31B085"/>
<path d="M177.823 28.7109C176.055 28.7109 174.462 28.3366 173.044 27.5878C171.642 26.8391 170.535 25.8036 169.722 24.4814C168.926 23.1591 168.527 21.6696 168.527 20.0128C168.527 18.356 168.926 16.8665 169.722 15.5443C170.535 14.222 171.642 13.1865 173.044 12.4378C174.462 11.6891 176.055 11.3147 177.823 11.3147C179.591 11.3147 181.176 11.6891 182.578 12.4378C183.996 13.1865 185.103 14.222 185.9 15.5443C186.712 16.8665 187.118 18.356 187.118 20.0128C187.118 21.6696 186.712 23.1591 185.9 24.4814C185.103 25.8036 183.996 26.8391 182.578 27.5878C181.176 28.3366 179.591 28.7109 177.823 28.7109ZM177.823 24.792C178.667 24.792 179.432 24.5929 180.117 24.1946C180.802 23.7963 181.344 23.2388 181.742 22.5219C182.14 21.7891 182.339 20.9527 182.339 20.0128C182.339 19.0729 182.14 18.2445 181.742 17.5276C181.344 16.7948 180.802 16.2293 180.117 15.831C179.432 15.4328 178.667 15.2336 177.823 15.2336C176.979 15.2336 176.214 15.4328 175.529 15.831C174.844 16.2293 174.302 16.7948 173.904 17.5276C173.506 18.2445 173.307 19.0729 173.307 20.0128C173.307 20.9527 173.506 21.7891 173.904 22.5219C174.302 23.2388 174.844 23.7963 175.529 24.1946C176.214 24.5929 176.979 24.792 177.823 24.792Z" fill="#31B085"/>
<path d="M199.552 28.3764L196.087 23.191L192.67 28.3764H187.269L193.363 19.9172L187.532 11.6492H192.861L196.206 16.4762L199.504 11.6492H204.618L198.787 19.7261L205 28.3764H199.552Z" fill="#31B085"/>
<path d="M53.214 28.6632C51.8917 28.6632 50.6093 28.488 49.3667 28.1375C48.1401 27.7711 47.1524 27.3011 46.4036 26.7276L47.7179 23.8123C48.4348 24.338 49.2871 24.7602 50.2748 25.0788C51.2625 25.3974 52.2502 25.5567 53.2379 25.5567C54.3371 25.5567 55.1495 25.3974 55.6752 25.0788C56.201 24.7443 56.4638 24.3062 56.4638 23.7645C56.4638 23.3663 56.3045 23.0397 55.9859 22.7848C55.6832 22.514 55.2849 22.2989 54.7911 22.1396C54.3132 21.9803 53.66 21.8051 52.8316 21.6139C51.5572 21.3112 50.5137 21.0085 49.7013 20.7059C48.8888 20.4032 48.1879 19.9173 47.5984 19.2482C47.0249 18.5791 46.7382 17.687 46.7382 16.5719C46.7382 15.6001 47.001 14.7239 47.5267 13.9433C48.0524 13.1468 48.841 12.5175 49.8924 12.0555C50.9598 11.5935 52.2581 11.3625 53.7875 11.3625C54.8548 11.3625 55.8983 11.49 56.9178 11.7449C57.9374 11.9998 58.8295 12.3662 59.5942 12.8441L58.3994 15.7833C56.8541 14.9071 55.3088 14.469 53.7636 14.469C52.6803 14.469 51.8758 14.6443 51.3501 14.9947C50.8403 15.3452 50.5854 15.8072 50.5854 16.3807C50.5854 16.9542 50.8801 17.3843 51.4696 17.6711C52.0749 17.9419 52.9909 18.2127 54.2176 18.4835C55.492 18.7862 56.5355 19.0889 57.348 19.3916C58.1604 19.6943 58.8534 20.1722 59.4269 20.8253C60.0163 21.4785 60.3111 22.3626 60.3111 23.4778C60.3111 24.4336 60.0402 25.3098 59.4986 26.1063C58.9729 26.8869 58.1764 27.5082 57.109 27.9702C56.0417 28.4322 54.7433 28.6632 53.214 28.6632Z" fill="black"/>
<path d="M73.9722 24.7921H66.2061L64.7245 28.3764H60.7578L68.2133 11.6493H72.0367L79.5161 28.3764H75.4538L73.9722 24.7921ZM72.7536 21.8529L70.1011 15.4488L67.4487 21.8529H72.7536Z" fill="black"/>
<path d="M96.5927 11.6493V28.3764H93.4146L85.0749 18.2207V28.3764H81.2515V11.6493H84.4536L92.7694 21.8051V11.6493H96.5927Z" fill="black"/>
<path d="M104.015 14.8036H98.6625V11.6493H113.239V14.8036H107.886V28.3764H104.015V14.8036Z" fill="black"/>
<path d="M128.274 25.27V28.3764H115.322V11.6493H127.963V14.7558H119.169V18.388H126.935V21.3988H119.169V25.27H128.274Z" fill="black"/>
<path d="M146.695 11.6493V28.3764H142.824V21.5183H135.225V28.3764H131.354V11.6493H135.225V18.2446H142.824V11.6493H146.695Z" fill="black"/>
</svg>
