<svg width="34" height="33" viewBox="0 0 34 33" fill="none" xmlns="http://www.w3.org/2000/svg">
<path d="M17.4336 0C8.31867 0 0.933594 7.38508 0.933594 16.5C0.933594 25.6149 8.31867 33 17.4336 33C26.5485 33 33.9336 25.6149 33.9336 16.5C33.9336 7.38508 26.5485 0 17.4336 0ZM17.4336 29.8065C10.0951 29.8065 4.12714 23.8385 4.12714 16.5C4.12714 9.16149 10.0951 3.19355 17.4336 3.19355C24.7721 3.19355 30.74 9.16149 30.74 16.5C30.74 23.8385 24.7721 29.8065 17.4336 29.8065ZM12.111 15.4355C13.2886 15.4355 14.24 14.4841 14.24 13.3065C14.24 12.1288 13.2886 11.1774 12.111 11.1774C10.9334 11.1774 9.98198 12.1288 9.98198 13.3065C9.98198 14.4841 10.9334 15.4355 12.111 15.4355ZM22.7562 15.4355C23.9338 15.4355 24.8852 14.4841 24.8852 13.3065C24.8852 12.1288 23.9338 11.1774 22.7562 11.1774C21.5786 11.1774 20.6271 12.1288 20.6271 13.3065C20.6271 14.4841 21.5786 15.4355 22.7562 15.4355ZM23.0223 20.2657C21.6384 21.929 19.5959 22.8871 17.4336 22.8871C15.2713 22.8871 13.2288 21.9357 11.8449 20.2657C11.2794 19.5871 10.2681 19.5006 9.59609 20.0595C8.91746 20.625 8.83097 21.6296 9.38984 22.3083C11.3858 24.7034 14.3199 26.074 17.4336 26.074C20.5473 26.074 23.4814 24.7034 25.4773 22.3083C26.0429 21.6296 25.9497 20.625 25.2711 20.0595C24.5991 19.5006 23.5878 19.5871 23.0223 20.2657Z" fill="white"/>
</svg>
